<?xml version="1.0" standalone="no"?>
<!DOCTYPE svg PUBLIC "-//W3C//DTD SVG 20010904//EN"
 "http://www.w3.org/TR/2001/REC-SVG-20010904/DTD/svg10.dtd">
<svg version="1.0" xmlns="http://www.w3.org/2000/svg"
 width="512.000000pt" height="512.000000pt" viewBox="0 0 512.000000 512.000000"
 preserveAspectRatio="xMidYMid meet">
<metadata>
Created by potrace 1.11, written by Peter Selinger 2001-2013
</metadata>
<g transform="translate(0.000000,512.000000) scale(0.100000,-0.100000)"
fill="#000000" stroke="none">
<path d="M2445 5105 c-96 -23 -69 -7 -630 -373 -88 -57 -220 -143 -293 -191
-73 -47 -201 -131 -285 -186 -84 -55 -256 -167 -382 -249 -778 -506 -701 -451
-745 -542 -22 -44 -29 -120 -17 -175 32 -151 207 -250 354 -200 27 9 127 68
223 130 193 127 448 293 670 438 214 140 740 483 1005 655 222 145 213 140
236 127 12 -6 129 -81 260 -167 131 -87 305 -200 386 -253 276 -180 508 -332
623 -408 63 -42 120 -78 125 -81 6 -3 44 -27 85 -54 41 -28 174 -115 295 -195
260 -171 314 -200 379 -205 254 -19 399 293 219 470 -22 22 -112 86 -201 144
-89 58 -267 173 -395 257 -127 83 -288 188 -357 233 -69 45 -348 227 -620 406
-562 368 -600 391 -684 414 -72 20 -181 22 -251 5z"/>
<path d="M1880 3459 c-73 -13 -90 -17 -159 -40 -220 -72 -408 -232 -520 -440
-68 -127 -102 -254 -116 -433 -4 -50 -8 -97 -10 -105 -1 -9 -6 -54 -10 -101
-5 -47 -9 -94 -11 -105 -1 -11 -3 -29 -3 -40 -1 -18 -8 -20 -84 -21 -88 -2
-124 -14 -171 -58 -33 -30 -62 -97 -71 -161 -3 -27 -15 -95 -25 -150 -11 -55
-21 -113 -24 -130 -16 -100 -38 -220 -40 -225 -2 -3 -7 -29 -10 -59 -4 -29 -8
-57 -10 -60 -3 -4 -7 -27 -10 -51 -3 -25 -12 -81 -21 -125 -24 -123 -28 -195
-15 -261 34 -162 157 -284 322 -318 l62 -13 2 -114 c2 -124 18 -189 67 -266
36 -57 114 -121 183 -151 53 -23 74 -26 204 -29 131 -2 151 0 211 21 77 27 96
39 160 101 42 41 93 128 106 180 3 11 7 70 10 130 2 61 5 114 7 120 2 7 230
10 659 10 578 0 657 -2 657 -15 2 -91 9 -220 14 -240 16 -70 75 -163 136 -217
39 -34 122 -72 180 -83 67 -13 242 -13 298 0 136 32 248 133 298 270 10 30 17
84 18 165 l2 120 45 6 c138 21 254 110 316 246 23 49 27 71 27 148 1 78 -9
168 -19 185 -1 3 -6 28 -9 55 -4 28 -9 57 -11 65 -2 8 -6 31 -9 50 -3 19 -8
45 -10 56 -2 12 -7 39 -10 60 -4 22 -8 46 -11 54 -2 8 -6 33 -10 55 -5 36 -19
119 -29 170 -8 42 -39 221 -41 242 -10 77 -29 118 -73 161 -41 39 -79 53 -162
56 -44 1 -82 4 -84 7 -4 4 -10 52 -22 164 -3 33 -7 78 -10 100 -2 22 -7 69 -9
105 -25 333 -164 590 -410 757 -102 69 -245 129 -355 150 -53 10 -1338 12
-1390 2z m201 -353 c0 -6 1 -47 3 -92 4 -103 30 -155 100 -198 l49 -31 326 1
c315 0 327 1 368 22 45 24 84 69 100 117 6 17 10 67 9 112 l-1 82 85 -4 c238
-11 432 -147 521 -365 26 -65 36 -110 44 -200 2 -25 7 -74 10 -110 3 -36 8
-76 10 -90 2 -14 7 -59 10 -100 l5 -75 -1157 0 -1158 0 1 40 c1 37 8 129 19
230 2 22 7 67 10 100 10 102 16 128 36 185 69 187 216 320 410 369 80 20 199
24 200 7z m-596 -1531 c137 -81 201 -235 159 -385 -67 -240 -349 -333 -544
-179 -87 69 -130 162 -127 278 4 171 126 307 297 330 67 9 157 -10 215 -44z
m2430 28 c147 -44 244 -191 232 -348 -7 -91 -36 -155 -102 -221 -204 -205
-558 -71 -579 220 -13 175 95 319 272 360 63 15 102 12 177 -11z"/>
</g>
</svg>
